<?xml version="1.0" encoding="utf-8"?>
<!-- Generator: Adobe Illustrator 24.3.0, SVG Export Plug-In . SVG Version: 6.00 Build 0)  -->
<svg version="1.1" id="Layer_1" xmlns="http://www.w3.org/2000/svg" xmlns:xlink="http://www.w3.org/1999/xlink" x="0px" y="0px"
	 viewBox="0 0 122.7 27.8" style="enable-background:new 0 0 122.7 27.8;" xml:space="preserve">
<style type="text/css">
	.st0{fill:#3C3950;}
	.st1{fill:#FBBA00;}
	.st2{fill:#FCE05B;}
	.st3{fill:#F7941D;}
	.st4{fill:#F0305C;}
	.st5{fill:#454B5F;}
	.st6{fill:#95BEEF;}
	.st7{fill:#4C82C3;}
</style>
<g>
	<g>
		<path class="st0" d="M80.8,14.6c0.7-0.4,1.5-0.6,2.4-0.6c1.4,0,2.6,0.5,3.6,1.6l2.1-1.9c-0.7-0.8-1.5-1.4-2.5-1.8
			c-1-0.4-2.1-0.6-3.3-0.6c-1.5,0-2.8,0.3-4,0.9c-1.2,0.6-2.1,1.5-2.7,2.6c-0.7,1.1-1,2.3-1,3.7c0,1.4,0.3,2.6,1,3.7s1.6,2,2.7,2.6
			c1.2,0.6,2.5,0.9,3.9,0.9c1,0,2-0.2,3-0.5s1.9-0.7,2.6-1.3v-5.7h-3v4.1c-0.7,0.4-1.6,0.6-2.5,0.6s-1.7-0.2-2.3-0.6
			c-0.7-0.4-1.2-0.9-1.6-1.6s-0.6-1.5-0.6-2.3c0-0.9,0.2-1.7,0.6-2.3C79.6,15.5,80.1,15,80.8,14.6z M95.8,19.7h6.5v-2.5h-6.5v-3h7.3
			v-2.6H92.6v14h10.8V23h-7.6V19.7z M122.7,11.6H120l-5.2,8.7l-5.2-8.7H107v14h3v-8.2l4.1,6.7h1.5l4.1-6.9v8.4h3V11.6z M31.1,12.5h5
			v13.1h1V12.5h5v-0.9h-11V12.5z M56,18h-9.3v-6.4h-1v14h1V19H56v6.6h1v-14h-1V18z M63.9,18.9h7.4V18h-7.4v-5.5h8.3v-0.9h-9.3v14
			h9.6v-0.9h-8.6C63.9,24.7,63.9,18.9,63.9,18.9z"/>
	</g>
</g>
<polygon class="st1" points="5.6,27.8 23.6,27.8 9,17.2 "/>
<polygon class="st2" points="14.6,0 11.2,10.6 29.2,10.6 "/>
<polygon class="st3" points="11.2,10.6 9,17.2 23.6,27.8 29.2,10.6 "/>
<polygon class="st4" points="5.6,27.8 9,17.2 0,10.6 "/>
<polygon class="st5" points="5.6,27.8 9,17.2 0,10.6 "/>
<polygon class="st2" points="0,10.6 11.2,10.6 14.6,0 "/>
<polygon class="st6" points="0,10.6 11.2,10.6 14.6,0 "/>
<polygon class="st3" points="0,10.6 9,17.2 11.2,10.6 "/>
<polygon class="st7" points="0,10.6 9,17.2 11.2,10.6 "/>
</svg>
